# xmcd CD database file
#
# Track frame offsets:
#	150
#	27430
#	47112
#	66527
#	81204
#	104940
#	136842
#	156007
#	185590
#	206809
#	223065
#	257250
#	286792
#
# Disc length: 4149 seconds
#
# Revision: 1
# Processed by: cddbd v1.4PL0 Copyright (c) Steve Scherf et al.
# Submitted via: CDex 1.50
#
DISCID=c710330d
DTITLE=Geoff Achison - Mystery Train
DYEAR=1996
DGENRE=Blues
TTITLE0=That's alright mama
TTITLE1=When you've got a good friend
TTITLE2=Gimmie some lovin'
TTITLE3=Walking blues
TTITLE4=Guilty
TTITLE5=Mystery train/Train ride
TTITLE6=Rambling on my mind
TTITLE7=Chaser/Well alright
TTITLE8=Can't help falling in love
TTITLE9=Christine
TTITLE10=Rolling stone
TTITLE11=The sky is crying
TTITLE12=Rain song
EXTD=YEAR: 1996
EXTT0=
EXTT1=
EXTT2=
EXTT3=
EXTT4=
EXTT5=
EXTT6=
EXTT7=
EXTT8=
EXTT9=
EXTT10=
EXTT11=
EXTT12=
PLAYORDER=
